<svg xmlns="http://www.w3.org/2000/svg" width="128" height="128" viewBox="0 0 128 128">
  <rect width="128" height="128" rx="28" fill="#FAF9F6"/>
  <g transform="translate(32,32)" fill="none" stroke="#1A1A18" stroke-width="2.6" stroke-linecap="round" stroke-linejoin="round">
    <path d="M32 11c-11 0-17 6.5-17 16.5C15 38 20 50 32 54c12-4 17-16 17-26.5C49 17.5 43 11 32 11Z"/>
    <path d="M19 13c-2-3-3.5-5-2.5-6.5S21 8 22.5 11"/>
    <path d="M45 13c2-3 3.5-5 2.5-6.5S43 8 41.5 11"/>
    <path d="M25 15 24 33" stroke-width="3.6"/>
    <path d="M39 15 40 33" stroke-width="3.6"/>
    <circle cx="25" cy="31" r="1.7" fill="#1A1A18" stroke="none"/>
    <circle cx="39" cy="31" r="1.7" fill="#1A1A18" stroke="none"/>
    <path d="M28.5 42q3.5 4 7 0"/>
  </g>
</svg>
